<?xml version="1.0" encoding="UTF-8"?>
<svg version="1.1" xmlns="http://www.w3.org/2000/svg" width="256" height="256">
<path d="M0 0 C1.25039062 -0.01546875 2.50078125 -0.0309375 3.7890625 -0.046875 C21.95697376 0.02835445 38.26449808 6.73066872 52 18.5 C52.5775 18.93441406 53.155 19.36882813 53.75 19.81640625 C63.27444215 27.20225838 70.50918843 38.45552439 75 49.5 C75 50.16 75 50.82 75 51.5 C63.615 55.955 63.615 55.955 52 60.5 C50.68 58.19 49.36 55.88 48 53.5 C39.5999753 39.32248637 28.10405919 30.64295299 12 26.5 C-2.9642969 23.61855644 -18.09765681 26.28616432 -31 34.5 C-43.9153194 44.33936098 -52.33535732 56.63052133 -54.71484375 72.87109375 C-56.37340984 88.16170985 -52.27173065 102.87063792 -43 115.1484375 C-34.38155796 125.39822749 -21.6492639 133.46485889 -8.00805664 134.67700195 C7.74328899 135.13709595 21.60059982 133.09921124 34.59716797 123.29516602 C36.6133487 120.71511435 36.5137076 118.54503863 36.6875 115.3125 C36.75324219 114.22582031 36.81898437 113.13914062 36.88671875 112.01953125 C36.92410156 111.18808594 36.96148437 110.35664062 37 109.5 C36.18732666 109.50523682 35.37465332 109.51047363 34.53735352 109.51586914 C30.87907678 109.53656994 27.22081233 109.54963803 23.5625 109.5625 C22.28310547 109.57087891 21.00371094 109.57925781 19.68554688 109.58789062 C18.47060547 109.59111328 17.25566406 109.59433594 16.00390625 109.59765625 C14.87799072 109.60289307 13.7520752 109.60812988 12.59204102 109.61352539 C10 109.5 10 109.5 9 108.5 C9 101.24 9 93.98 9 86.5 C25.5 86.5 42 86.5 59 86.5 C59 92.44 59 98.38 59 104.5 C63.53454162 102.62365324 63.53454162 102.62365324 68.06225586 100.73095703 C84.96915392 93.85302377 107.07875844 93.66642168 124 100.5 C133.09405865 104.3770564 141.66476703 108.77937671 149 115.5 C149.90363281 116.32371094 150.80726563 117.14742188 151.73828125 117.99609375 C165.84142813 131.45038137 175.66968987 149.51655554 176.43359375 169.26953125 C176.45714489 171.61706973 176.45792902 173.96493228 176.4375 176.3125 C176.42920166 177.54500488 176.42090332 178.77750977 176.41235352 180.04736328 C176.01217316 201.62292331 167.26908481 219.38972376 152.6640625 234.99609375 C134.51509193 252.39136952 113.470742 257.03952651 89 256.7734375 C71.98199877 256.31775931 56.85549576 249.55121566 44 238.5 C43.34902344 238.00371094 42.69804688 237.50742188 42.02734375 236.99609375 C32.84986582 229.71614604 25.26192979 218.35670535 21 207.5 C21 206.84 21 206.18 21 205.5 C28.26 202.53 35.52 199.56 43 196.5 C45.87154853 199.37154853 47.28319236 201.65480577 49.1875 205.1875 C56.40750446 217.70922322 67.29424765 225.17405692 81 229.5 C95.84851677 233.15501951 110.67587172 231.65857715 124.21484375 224.296875 C136.61945166 216.29390216 146.16750305 204.38412571 149.4128418 189.85546875 C152.73830962 173.37642479 149.87344835 158.91503769 141 144.5 C132.37411336 132.60278654 120.23744835 125.65494505 106 122.5 C89.91359101 121.1335505 76.54381032 123.34877681 63 132.5 C62.01 133.16 61.02 133.82 60 134.5 C59.41312216 137.84613512 59.41312216 137.84613512 59.3125 141.625 C59.1578125 145.028125 59.1578125 145.028125 59 148.5 C67.91 148.5 76.82 148.5 86 148.5 C86 156.09 86 163.68 86 171.5 C69.83 171.5 53.66 171.5 37 171.5 C37 165.23 37 158.96 37 152.5 C35.288125 153.263125 33.57625 154.02625 31.8125 154.8125 C12.40654649 162.72779042 -10.48866084 163.76381048 -30.07763672 155.63818359 C-38.44341481 151.96274579 -46.2297795 147.70295248 -53 141.5 C-53.90363281 140.67628906 -54.80726562 139.85257813 -55.73828125 139.00390625 C-61.97087483 133.05806258 -66.81224577 127.01817294 -71 119.5 C-71.46019531 118.70078125 -71.92039062 117.9015625 -72.39453125 117.078125 C-78.62660717 105.55537436 -80.71778065 93.67567713 -80.5625 80.6875 C-80.55081787 79.37378418 -80.53913574 78.06006836 -80.52709961 76.70654297 C-80.29780923 66.59152617 -79.22582322 57.72041202 -75 48.5 C-74.54125488 47.49308105 -74.54125488 47.49308105 -74.07324219 46.46582031 C-64.91604484 27.14603599 -49.0859727 12.19867079 -29 4.5 C-19.22408618 1.04616823 -10.33597771 -0.12786777 0 0 Z " fill="#003D73" transform="translate(80,-0.5)"/>
<path d="M0 0 C1.25039062 -0.01546875 2.50078125 -0.0309375 3.7890625 -0.046875 C21.95697376 0.02835445 38.26449808 6.73066872 52 18.5 C52.5775 18.93441406 53.155 19.36882813 53.75 19.81640625 C63.27444215 27.20225838 70.50918843 38.45552439 75 49.5 C75 50.16 75 50.82 75 51.5 C63.615 55.955 63.615 55.955 52 60.5 C50.68 58.19 49.36 55.88 48 53.5 C39.5999753 39.32248637 28.10405919 30.64295299 12 26.5 C-2.9642969 23.61855644 -18.09765681 26.28616432 -31 34.5 C-43.9153194 44.33936098 -52.33535732 56.63052133 -54.71484375 72.87109375 C-56.37340984 88.16170985 -52.27173065 102.87063792 -43 115.1484375 C-34.38155796 125.39822749 -21.6492639 133.46485889 -8.00805664 134.67700195 C9.25836597 135.18135108 22.90620895 132.07034329 37 121.5 C37 131.73 37 141.96 37 152.5 C16.05141083 161.22857882 -6.16141223 164.62969326 -28 156.5 C-37.11498803 152.71904727 -45.68637947 148.20082172 -53 141.5 C-53.90363281 140.67628906 -54.80726562 139.85257813 -55.73828125 139.00390625 C-61.97087483 133.05806258 -66.81224577 127.01817294 -71 119.5 C-71.46019531 118.70078125 -71.92039062 117.9015625 -72.39453125 117.078125 C-78.62660717 105.55537436 -80.71778065 93.67567713 -80.5625 80.6875 C-80.55081787 79.37378418 -80.53913574 78.06006836 -80.52709961 76.70654297 C-80.29780923 66.59152617 -79.22582322 57.72041202 -75 48.5 C-74.54125488 47.49308105 -74.54125488 47.49308105 -74.07324219 46.46582031 C-64.91604484 27.14603599 -49.0859727 12.19867079 -29 4.5 C-19.22408618 1.04616823 -10.33597771 -0.12786777 0 0 Z " fill="#003E74" transform="translate(80,-0.5)"/>
<path d="M0 0 C16.5 0 33 0 50 0 C50 20.46 50 40.92 50 62 C58.91 62 67.82 62 77 62 C77 69.59 77 77.18 77 85 C60.83 85 44.66 85 28 85 C28 64.54 28 44.08 28 23 C19.09 23 10.18 23 1 23 C0.67 22.67 0.34 22.34 0 22 C0 14.74 0 7.48 0 0 Z " fill="#CB0033" transform="translate(89,86)"/>
</svg>
